<?xml version="1.0" encoding="utf-8" ?>
<svg xmlns="http://www.w3.org/2000/svg" xmlns:xlink="http://www.w3.org/1999/xlink" width="512" height="512">
	<path fill="#181818" d="M207.4 88.2283L208.376 84.8193C216.302 45.961 241.464 17.3473 280.035 5.33269C297.717 -0.175004 317.402 0.357185 335.002 5.93646C405.043 28.1386 431.53 115.051 377.481 167.928C373.864 171.466 369.622 174.337 366.043 177.857L411.958 177.919C421.375 177.91 421.743 179.841 421.754 190.138L421.76 202.836C421.76 204.421 421.571 206.291 421.842 207.835C424.458 206.594 426.966 205.461 429.551 204.089L482.776 174.875C489.82 171.021 495.271 163.914 502.264 171.64C502.6 175.273 502.457 178.969 502.461 182.617L502.461 400.125C502.369 403.24 500.38 405.008 497.375 405.749L497.088 405.83C493.723 406.663 477.988 396.427 474.51 394.478L435.98 373.562C431.31 371.108 426.753 368.27 421.957 366.093C421.455 368.98 421.747 372.364 421.749 375.308L421.751 391.833C421.748 394.029 422.254 398.145 421.124 400.027L420.949 400.332C420.097 401.783 418.966 402.879 417.494 403.691L417.256 403.826C412.853 406.283 404.164 404.898 399.195 404.9L369.08 404.887C365.775 404.878 362.082 404.521 358.816 404.942L357.245 413.875C356.404 418.206 354.201 421.756 356.226 426.003C357.842 429.389 358.621 432.709 356.875 436.263L356.593 436.89C365.307 449.568 372.752 462.947 380.625 476.141L390.05 492.25C392.168 496.007 394.552 499.762 395.689 503.951C391.501 512.312 387.921 509.951 379.155 509.956L340.939 509.956C338.202 509.956 334.999 510.311 332.356 509.724L332.229 509.475C331.128 507.368 329.619 505.423 328.327 503.426L288.248 441.1C287.514 439.938 287.194 438.425 286.117 437.568C282.757 437.178 279.118 437.477 275.714 437.478L254.351 437.492L254.506 498.565C254.541 512.064 251.183 509.945 240.1 509.952L205.292 509.952C202.802 509.951 199.803 510.272 197.408 509.684C193.468 504.777 194.276 499.839 194.268 493.846L194.272 452.282C194.276 447.423 194.121 442.501 194.422 437.65L162.395 437.29C161.123 438.455 160.127 440.49 159.204 441.965L143.012 467C139.841 471.91 116.362 509.623 114.946 509.915C113.761 510.159 111.902 509.928 110.654 509.932L71.5608 509.955C63.9129 509.952 56.5068 512.551 53.3467 504.875L53.2093 504.564C51.5292 500.489 63.9304 482.069 66.1653 478.17C73.3576 465.623 80.2089 452.542 88.5642 440.736C87.5521 439.353 85.7379 437.301 85.2935 435.625L85.125 434.518C82.3432 435.225 76.118 431.468 75.4414 428.622C74.5556 424.896 74.7617 409.144 74.9739 404.909L22.6427 404.933C9.15199 404.919 10.7635 399.853 10.7912 389.325L10.722 185.186C10.8757 176.555 20.466 177.97 26.4419 177.966L61.2901 177.944C64.5789 177.944 67.9931 177.756 71.2681 178L71.4369 178.024C70.0899 176.656 68.0439 175.672 66.4594 174.544C54.6457 166.131 45.7384 152.47 40.0514 139.385C12.7876 76.6545 70.5645 7.84144 136.651 19.9589C169.49 25.9803 196.648 50.7076 205.885 82.8962C206.343 84.493 206.561 86.355 207.223 87.8488L207.4 88.2283ZM23.1555 189.542L23.1036 392.621L409.766 392.197C410.152 390.639 409.926 388.643 409.927 387.031L409.804 189.797L23.1555 189.542ZM302.266 41.8493C275.076 44.8761 251.268 65.2936 248.189 92.9968C244.07 130.061 274.235 159.381 311.253 158.696C330.682 156.957 348.487 145.801 358.166 128.667C378.24 93.1304 354.923 46.3009 313.59 41.9208C309.884 41.5281 305.987 41.6691 302.266 41.8493ZM119.158 55.6072C80.2655 58.0931 57.2661 102.337 79.4199 134.481C86.6177 144.925 97.8797 153.392 110.555 155.634L110.873 155.688C114.992 156.433 119.109 156.917 123.312 156.623C137.18 155.615 149.747 150.387 159.022 139.731C188.569 105.782 162.911 53.2343 119.158 55.6072ZM172.079 178.16C175.489 177.715 179.127 177.916 182.565 177.918L247.018 178.008C242.877 174.317 238.424 171.12 234.525 167.125C221.371 153.65 212.497 134.936 208.022 116.798L207.912 117.204C207.532 118.715 207.585 120.575 207.375 122.148C205.031 139.769 194.446 157.851 181.731 169.875C180.216 171.307 172.268 176.705 172.079 178.16Z"/>
	<path fill="#181818" d="M117.857 77.3213C155.275 74.7017 162.292 129.262 124.061 133.89C87.3941 138.161 80.2419 82.9902 117.857 77.3213Z"/>
	<path fill="#181818" d="M305.173 67.5997C320.069 66.614 333.719 76.0932 338.342 90.3303C345.126 111.226 331.07 129.593 309.791 132.158C303.166 133.071 295.584 130.523 290.103 126.893C263.448 109.242 274.658 69.5339 305.173 67.5997Z"/>
	<path fill="#CF0A0A" d="M23.1555 189.542L409.804 189.797L409.927 387.031C409.926 388.643 410.152 390.639 409.766 392.197L23.1036 392.621L23.1555 189.542ZM68.4636 219.598C64.217 220.04 58.8743 222.415 58.6577 227.237L58.5757 334.087C58.5697 340.278 58.2288 346.687 58.6091 352.848C59.2257 362.834 72.4499 360.674 79.1199 360.662L172.062 360.612C183.994 359.649 182.411 353.697 182.345 344.655L182.324 231.181C182.295 216.978 175.545 219.79 164.181 219.788L68.4636 219.598Z"/>
	<path fill="#181818" d="M327.704 211.346C359.72 208.566 381.414 243.755 362.178 269.666C356.355 277.51 346.609 283.01 337.003 284.471C328.132 286.107 317.356 282.654 310.336 277.403C283.86 257.602 293.692 216.097 327.704 211.346Z"/>
	<path fill="#181818" d="M68.4636 219.598L164.181 219.788C175.545 219.79 182.295 216.978 182.324 231.181L182.345 344.655C182.411 353.697 183.994 359.649 172.062 360.612L79.1199 360.662C72.4499 360.674 59.2257 362.834 58.6091 352.848C58.2288 346.687 58.5697 340.278 58.5757 334.087L58.6577 227.237C58.8743 222.415 64.217 220.04 68.4636 219.598ZM71.4423 232.368L70.9867 347.083L169.498 346.994L169.794 232.654L71.4423 232.368Z"/>
	<path fill="#CF0A0A" d="M86.2563 240.592L153.695 240.509L153.715 335.029L86.4067 334.551C85.936 332.817 86.2911 330.018 86.2898 328.183L86.2563 240.592Z"/>
</svg>
